# xmcd
#
# Track frame offsets:
# 150
# 13283
# 27157
# 40892
# 55361
# 72173
# 84822
# 102365
# 113113
# 130187
# 148410
# 160566
#
# Disc length: 2450 seconds
#
#
# Revision: 2
# Processed by: cddbd v1.5.2PL0 Copyright (c) Steve Scherf et al.
# Submitted via: FreeRIP 2.951 
#
DISCID=9e09900c
DTITLE=Don Walser - Texas Top Hand
DYEAR=1996
DGENRE=
TTITLE0=Texas Top Hand
TTITLE1=Tumbling Tumbleweed
TTITLE2=Whose Heart Are You Breaking Now
TTITLE3=Wind Me Up
TTITLE4=Weary Blues From Waiting
TTITLE5=Signposts Of Life
TTITLE6=You Walk By
TTITLE7=Divorce Me C.O.D.
TTITLE8=Whispering Pines
TTITLE9=Mexicali Rose
TTITLE10=Big Blue Diamonds
TTITLE11=Danny Boy
EXTD=
EXTT0=
EXTT1=
EXTT2=
EXTT3=
EXTT4=
EXTT5=
EXTT6=
EXTT7=
EXTT8=
EXTT9=
EXTT10=
EXTT11=
PLAYORDER=
